<svg id="visual" viewBox="0 0 900 600" width="900" height="600" xmlns="http://www.w3.org/2000/svg" xmlns:xlink="http://www.w3.org/1999/xlink" version="1.1"><rect x="0" y="0" width="900" height="600" fill="#eff2f4"></rect><path d="M0 424L21.5 417C43 410 86 396 128.8 392.8C171.7 389.7 214.3 397.3 257.2 406.3C300 415.3 343 425.7 385.8 419.7C428.7 413.7 471.3 391.3 514.2 384C557 376.7 600 384.3 642.8 382.3C685.7 380.3 728.3 368.7 771.2 364.3C814 360 857 363 878.5 364.5L900 366L900 601L878.5 601C857 601 814 601 771.2 601C728.3 601 685.7 601 642.8 601C600 601 557 601 514.2 601C471.3 601 428.7 601 385.8 601C343 601 300 601 257.2 601C214.3 601 171.7 601 128.8 601C86 601 43 601 21.5 601L0 601Z" fill="#715df2"></path><path d="M0 442L21.5 444.5C43 447 86 452 128.8 453.8C171.7 455.7 214.3 454.3 257.2 457C300 459.7 343 466.3 385.8 467.2C428.7 468 471.3 463 514.2 455.7C557 448.3 600 438.7 642.8 439.5C685.7 440.3 728.3 451.7 771.2 447.7C814 443.7 857 424.3 878.5 414.7L900 405L900 601L878.5 601C857 601 814 601 771.2 601C728.3 601 685.7 601 642.8 601C600 601 557 601 514.2 601C471.3 601 428.7 601 385.8 601C343 601 300 601 257.2 601C214.3 601 171.7 601 128.8 601C86 601 43 601 21.5 601L0 601Z" fill="#6c50f6"></path><path d="M0 483L21.5 485.8C43 488.7 86 494.3 128.8 492C171.7 489.7 214.3 479.3 257.2 475.2C300 471 343 473 385.8 477.8C428.7 482.7 471.3 490.3 514.2 491.7C557 493 600 488 642.8 488C685.7 488 728.3 493 771.2 494C814 495 857 492 878.5 490.5L900 489L900 601L878.5 601C857 601 814 601 771.2 601C728.3 601 685.7 601 642.8 601C600 601 557 601 514.2 601C471.3 601 428.7 601 385.8 601C343 601 300 601 257.2 601C214.3 601 171.7 601 128.8 601C86 601 43 601 21.5 601L0 601Z" fill="#6940fa"></path><path d="M0 522L21.5 521.7C43 521.3 86 520.7 128.8 521.3C171.7 522 214.3 524 257.2 526C300 528 343 530 385.8 528.3C428.7 526.7 471.3 521.3 514.2 517C557 512.7 600 509.3 642.8 512.8C685.7 516.3 728.3 526.7 771.2 526.2C814 525.7 857 514.3 878.5 508.7L900 503L900 601L878.5 601C857 601 814 601 771.2 601C728.3 601 685.7 601 642.8 601C600 601 557 601 514.2 601C471.3 601 428.7 601 385.8 601C343 601 300 601 257.2 601C214.3 601 171.7 601 128.8 601C86 601 43 601 21.5 601L0 601Z" fill="#672bfd"></path><path d="M0 547L21.5 543.5C43 540 86 533 128.8 533.8C171.7 534.7 214.3 543.3 257.2 546.8C300 550.3 343 548.7 385.8 551.3C428.7 554 471.3 561 514.2 564.7C557 568.3 600 568.7 642.8 562C685.7 555.3 728.3 541.7 771.2 537.3C814 533 857 538 878.5 540.5L900 543L900 601L878.5 601C857 601 814 601 771.2 601C728.3 601 685.7 601 642.8 601C600 601 557 601 514.2 601C471.3 601 428.7 601 385.8 601C343 601 300 601 257.2 601C214.3 601 171.7 601 128.8 601C86 601 43 601 21.5 601L0 601Z" fill="#6600ff"></path></svg>