<svg id="visual" viewBox="0 0 960 540" width="960" height="540" xmlns="http://www.w3.org/2000/svg" xmlns:xlink="http://www.w3.org/1999/xlink" version="1.1"><g stroke-width="1" stroke-linejoin="bevel"><path d="M449.7 305L458.7 339L555.3 306Z" fill="#7e8489" stroke="#7e8489"></path><path d="M458.7 339L543.3 374L555.3 306Z" fill="#7e8489" stroke="#7e8489"></path><path d="M543.3 374L607 344L555.3 306Z" fill="#3d474f" stroke="#3d474f"></path><path d="M607 344L618 283L555.3 306Z" fill="#1a252f" stroke="#1a252f"></path><path d="M555.3 306L538.3 154L449.7 305Z" fill="#25303a" stroke="#25303a"></path><path d="M458.7 339L497.3 430L543.3 374Z" fill="#25303a" stroke="#25303a"></path><path d="M543.3 374L617 458L607 344Z" fill="#00101c" stroke="#00101c"></path><path d="M618 283L538.3 154L555.3 306Z" fill="#00101c" stroke="#00101c"></path><path d="M349 420L419.7 447L458.7 339Z" fill="#313b44" stroke="#313b44"></path><path d="M458.7 339L419.7 447L497.3 430Z" fill="#49535a" stroke="#49535a"></path><path d="M398.7 146L344 237L449.7 305Z" fill="#313b44" stroke="#313b44"></path><path d="M324 391L349 420L458.7 339Z" fill="#25303a" stroke="#25303a"></path><path d="M497.3 430L617 458L543.3 374Z" fill="#636b71" stroke="#636b71"></path><path d="M607 344L718.7 388L618 283Z" fill="#1a252f" stroke="#1a252f"></path><path d="M572.3 540L617 458L497.3 430Z" fill="#0f1b25" stroke="#0f1b25"></path><path d="M324 391L458.7 339L449.7 305Z" fill="#636b71" stroke="#636b71"></path><path d="M538.3 154L398.7 146L449.7 305Z" fill="#3d474f" stroke="#3d474f"></path><path d="M344 237L324 391L449.7 305Z" fill="#313b44" stroke="#313b44"></path><path d="M737.7 244L646 170L618 283Z" fill="#1a252f" stroke="#1a252f"></path><path d="M618 283L646 170L538.3 154Z" fill="#49535a" stroke="#49535a"></path><path d="M398.7 146L325 185L344 237Z" fill="#25303a" stroke="#25303a"></path><path d="M344 237L202.3 375L324 391Z" fill="#313b44" stroke="#313b44"></path><path d="M662 80L496.3 85L538.3 154Z" fill="#3d474f" stroke="#3d474f"></path><path d="M538.3 154L496.3 85L398.7 146Z" fill="#313b44" stroke="#313b44"></path><path d="M398.7 146L298 89L325 185Z" fill="#1a252f" stroke="#1a252f"></path><path d="M617 458L718.7 388L607 344Z" fill="#3d474f" stroke="#3d474f"></path><path d="M398.7 540L497.3 430L419.7 447Z" fill="#70777d" stroke="#70777d"></path><path d="M398.7 540L572.3 540L497.3 430Z" fill="#49535a" stroke="#49535a"></path><path d="M617 458L659 540L718.7 388Z" fill="#313b44" stroke="#313b44"></path><path d="M718.7 388L737.7 244L618 283Z" fill="#636b71" stroke="#636b71"></path><path d="M303 540L398.7 540L349 420Z" fill="#636b71" stroke="#636b71"></path><path d="M349 420L398.7 540L419.7 447Z" fill="#565f66" stroke="#565f66"></path><path d="M496.3 85L396.7 57L398.7 146Z" fill="#70777d" stroke="#70777d"></path><path d="M572.3 540L659 540L617 458Z" fill="#1a252f" stroke="#1a252f"></path><path d="M748.7 170L662 80L646 170Z" fill="#313b44" stroke="#313b44"></path><path d="M646 170L662 80L538.3 154Z" fill="#70777d" stroke="#70777d"></path><path d="M496.3 85L444.7 0L396.7 57Z" fill="#313b44" stroke="#313b44"></path><path d="M737.7 244L748.7 170L646 170Z" fill="#1a252f" stroke="#1a252f"></path><path d="M822.3 198L748.7 170L737.7 244Z" fill="#00101c" stroke="#00101c"></path><path d="M659 540L775.7 431L718.7 388Z" fill="#1a252f" stroke="#1a252f"></path><path d="M718.7 388L817.3 360L737.7 244Z" fill="#00101c" stroke="#00101c"></path><path d="M396.7 57L298 89L398.7 146Z" fill="#313b44" stroke="#313b44"></path><path d="M196.3 244L202.3 375L344 237Z" fill="#00101c" stroke="#00101c"></path><path d="M324 391L303 540L349 420Z" fill="#25303a" stroke="#25303a"></path><path d="M184.3 415L303 540L324 391Z" fill="#636b71" stroke="#636b71"></path><path d="M196.3 244L344 237L325 185Z" fill="#00101c" stroke="#00101c"></path><path d="M601 0L545.3 0L496.3 85Z" fill="#636b71" stroke="#636b71"></path><path d="M248.3 0L237.3 74L298 89Z" fill="#636b71" stroke="#636b71"></path><path d="M178.3 204L196.3 244L325 185Z" fill="#0f1b25" stroke="#0f1b25"></path><path d="M545.3 0L444.7 0L496.3 85Z" fill="#0f1b25" stroke="#0f1b25"></path><path d="M775.7 431L817.3 360L718.7 388Z" fill="#49535a" stroke="#49535a"></path><path d="M662 80L601 0L496.3 85Z" fill="#565f66" stroke="#565f66"></path><path d="M724.7 0L601 0L662 80Z" fill="#7e8489" stroke="#7e8489"></path><path d="M822.3 198L769.7 118L748.7 170Z" fill="#70777d" stroke="#70777d"></path><path d="M748.7 170L769.7 118L662 80Z" fill="#565f66" stroke="#565f66"></path><path d="M108.7 337L184.3 415L202.3 375Z" fill="#313b44" stroke="#313b44"></path><path d="M202.3 375L184.3 415L324 391Z" fill="#3d474f" stroke="#3d474f"></path><path d="M870.3 279L822.3 198L737.7 244Z" fill="#636b71" stroke="#636b71"></path><path d="M237.3 74L178.3 204L325 185Z" fill="#3d474f" stroke="#3d474f"></path><path d="M196.3 244L108.7 337L202.3 375Z" fill="#7e8489" stroke="#7e8489"></path><path d="M314 0L298 89L396.7 57Z" fill="#565f66" stroke="#565f66"></path><path d="M298 89L237.3 74L325 185Z" fill="#636b71" stroke="#636b71"></path><path d="M659 540L771.7 540L775.7 431Z" fill="#565f66" stroke="#565f66"></path><path d="M775.7 431L849.3 478L817.3 360Z" fill="#25303a" stroke="#25303a"></path><path d="M444.7 0L314 0L396.7 57Z" fill="#0f1b25" stroke="#0f1b25"></path><path d="M960 327L870.3 279L817.3 360Z" fill="#7e8489" stroke="#7e8489"></path><path d="M817.3 360L870.3 279L737.7 244Z" fill="#1a252f" stroke="#1a252f"></path><path d="M846.3 60L769.7 118L822.3 198Z" fill="#3d474f" stroke="#3d474f"></path><path d="M846.3 60L724.7 0L769.7 118Z" fill="#0f1b25" stroke="#0f1b25"></path><path d="M769.7 118L724.7 0L662 80Z" fill="#70777d" stroke="#70777d"></path><path d="M771.7 540L849.3 478L775.7 431Z" fill="#49535a" stroke="#49535a"></path><path d="M126.7 459L187.3 540L184.3 415Z" fill="#636b71" stroke="#636b71"></path><path d="M184.3 415L187.3 540L303 540Z" fill="#7e8489" stroke="#7e8489"></path><path d="M101.7 244L108.7 337L196.3 244Z" fill="#313b44" stroke="#313b44"></path><path d="M101.7 244L196.3 244L178.3 204Z" fill="#0f1b25" stroke="#0f1b25"></path><path d="M314 0L248.3 0L298 89Z" fill="#25303a" stroke="#25303a"></path><path d="M97.7 202L101.7 244L178.3 204Z" fill="#3d474f" stroke="#3d474f"></path><path d="M771.7 540L833.3 540L849.3 478Z" fill="#49535a" stroke="#49535a"></path><path d="M108.7 337L126.7 459L184.3 415Z" fill="#1a252f" stroke="#1a252f"></path><path d="M97.7 202L178.3 204L118.7 91Z" fill="#70777d" stroke="#70777d"></path><path d="M118.7 91L178.3 204L237.3 74Z" fill="#565f66" stroke="#565f66"></path><path d="M0 431L126.7 459L108.7 337Z" fill="#1a252f" stroke="#1a252f"></path><path d="M960 125L846.3 60L822.3 198Z" fill="#1a252f" stroke="#1a252f"></path><path d="M248.3 0L118.7 91L237.3 74Z" fill="#3d474f" stroke="#3d474f"></path><path d="M960 422L960 327L817.3 360Z" fill="#1a252f" stroke="#1a252f"></path><path d="M870.3 279L960 193L822.3 198Z" fill="#49535a" stroke="#49535a"></path><path d="M960 422L817.3 360L849.3 478Z" fill="#00101c" stroke="#00101c"></path><path d="M960 327L960 286L870.3 279Z" fill="#70777d" stroke="#70777d"></path><path d="M960 0L850.3 0L846.3 60Z" fill="#7e8489" stroke="#7e8489"></path><path d="M846.3 60L850.3 0L724.7 0Z" fill="#0f1b25" stroke="#0f1b25"></path><path d="M960 540L960 422L849.3 478Z" fill="#7e8489" stroke="#7e8489"></path><path d="M960 286L960 193L870.3 279Z" fill="#25303a" stroke="#25303a"></path><path d="M0 307L108.7 337L101.7 244Z" fill="#0f1b25" stroke="#0f1b25"></path><path d="M0 431L76.7 540L126.7 459Z" fill="#25303a" stroke="#25303a"></path><path d="M126.7 459L76.7 540L187.3 540Z" fill="#313b44" stroke="#313b44"></path><path d="M960 193L960 125L822.3 198Z" fill="#3d474f" stroke="#3d474f"></path><path d="M0 193L101.7 244L97.7 202Z" fill="#70777d" stroke="#70777d"></path><path d="M0 193L0 307L101.7 244Z" fill="#70777d" stroke="#70777d"></path><path d="M0 307L0 351L108.7 337Z" fill="#49535a" stroke="#49535a"></path><path d="M833.3 540L960 540L849.3 478Z" fill="#0f1b25" stroke="#0f1b25"></path><path d="M0 91L0 193L97.7 202Z" fill="#565f66" stroke="#565f66"></path><path d="M248.3 0L88.7 0L118.7 91Z" fill="#1a252f" stroke="#1a252f"></path><path d="M118.7 91L0 91L97.7 202Z" fill="#70777d" stroke="#70777d"></path><path d="M0 351L0 431L108.7 337Z" fill="#7e8489" stroke="#7e8489"></path><path d="M88.7 0L0 91L118.7 91Z" fill="#565f66" stroke="#565f66"></path><path d="M960 125L960 0L846.3 60Z" fill="#0f1b25" stroke="#0f1b25"></path><path d="M0 431L0 540L76.7 540Z" fill="#70777d" stroke="#70777d"></path><path d="M88.7 0L0 0L0 91Z" fill="#49535a" stroke="#49535a"></path></g></svg>