<?xml version="1.0" standalone="no"?>
<svg xmlns:xlink="http://www.w3.org/1999/xlink" id="wave" style="transform:rotate(0deg); transition: 0.3s" viewBox="0 0 1440 360" version="1.1" xmlns="http://www.w3.org/2000/svg"><defs><linearGradient id="sw-gradient-0" x1="0" x2="0" y1="1" y2="0"><stop stop-color="rgba(0, 0, 0, 1)" offset="0%"/><stop stop-color="rgba(0, 193.847, 167.581, 1)" offset="100%"/></linearGradient></defs><path style="transform:translate(0, 0px); opacity:1" fill="url(#sw-gradient-0)" d="M0,216L12.6,192C25.3,168,51,120,76,120C101.1,120,126,168,152,180C176.8,192,202,168,227,180C252.6,192,278,240,303,228C328.4,216,354,144,379,114C404.2,84,429,96,455,108C480,120,505,132,531,168C555.8,204,581,264,606,240C631.6,216,657,108,682,72C707.4,36,733,72,758,102C783.2,132,808,156,834,180C858.9,204,884,228,909,222C934.7,216,960,180,985,168C1010.5,156,1036,168,1061,144C1086.3,120,1112,60,1137,72C1162.1,84,1187,168,1213,186C1237.9,204,1263,156,1288,156C1313.7,156,1339,204,1364,216C1389.5,228,1415,204,1440,216C1465.3,228,1491,276,1516,282C1541.1,288,1566,252,1592,234C1616.8,216,1642,216,1667,198C1692.6,180,1718,144,1743,126C1768.4,108,1794,108,1806,108L1818.9,108L1818.9,360L1806.3,360C1793.7,360,1768,360,1743,360C1717.9,360,1693,360,1667,360C1642.1,360,1617,360,1592,360C1566.3,360,1541,360,1516,360C1490.5,360,1465,360,1440,360C1414.7,360,1389,360,1364,360C1338.9,360,1314,360,1288,360C1263.2,360,1238,360,1213,360C1187.4,360,1162,360,1137,360C1111.6,360,1086,360,1061,360C1035.8,360,1011,360,985,360C960,360,935,360,909,360C884.2,360,859,360,834,360C808.4,360,783,360,758,360C732.6,360,707,360,682,360C656.8,360,632,360,606,360C581.1,360,556,360,531,360C505.3,360,480,360,455,360C429.5,360,404,360,379,360C353.7,360,328,360,303,360C277.9,360,253,360,227,360C202.1,360,177,360,152,360C126.3,360,101,360,76,360C50.5,360,25,360,13,360L0,360Z"/><defs><linearGradient id="sw-gradient-1" x1="0" x2="0" y1="1" y2="0"><stop stop-color="rgba(0, 0, 0, 1)" offset="0%"/><stop stop-color="rgba(0, 0, 0, 1)" offset="100%"/></linearGradient></defs><path style="transform:translate(0, 50px); opacity:0.9" fill="url(#sw-gradient-1)" d="M0,324L12.6,312C25.3,300,51,276,76,240C101.1,204,126,156,152,114C176.8,72,202,36,227,24C252.6,12,278,24,303,60C328.4,96,354,156,379,198C404.2,240,429,264,455,264C480,264,505,240,531,204C555.8,168,581,120,606,120C631.6,120,657,168,682,162C707.4,156,733,96,758,114C783.2,132,808,228,834,246C858.9,264,884,204,909,174C934.7,144,960,144,985,144C1010.5,144,1036,144,1061,144C1086.3,144,1112,144,1137,144C1162.1,144,1187,144,1213,132C1237.9,120,1263,96,1288,114C1313.7,132,1339,192,1364,222C1389.5,252,1415,252,1440,246C1465.3,240,1491,228,1516,204C1541.1,180,1566,144,1592,114C1616.8,84,1642,60,1667,78C1692.6,96,1718,156,1743,186C1768.4,216,1794,216,1806,216L1818.9,216L1818.9,360L1806.3,360C1793.7,360,1768,360,1743,360C1717.9,360,1693,360,1667,360C1642.1,360,1617,360,1592,360C1566.3,360,1541,360,1516,360C1490.5,360,1465,360,1440,360C1414.7,360,1389,360,1364,360C1338.9,360,1314,360,1288,360C1263.2,360,1238,360,1213,360C1187.4,360,1162,360,1137,360C1111.6,360,1086,360,1061,360C1035.8,360,1011,360,985,360C960,360,935,360,909,360C884.2,360,859,360,834,360C808.4,360,783,360,758,360C732.6,360,707,360,682,360C656.8,360,632,360,606,360C581.1,360,556,360,531,360C505.3,360,480,360,455,360C429.5,360,404,360,379,360C353.7,360,328,360,303,360C277.9,360,253,360,227,360C202.1,360,177,360,152,360C126.3,360,101,360,76,360C50.5,360,25,360,13,360L0,360Z"/></svg>